<?xml version="1.0" encoding="UTF-8" standalone="no"?>
<!DOCTYPE svg PUBLIC "-//W3C//DTD SVG 1.1//EN" "http://www.w3.org/Graphics/SVG/1.1/DTD/svg11.dtd">
<svg width="100%" height="100%" viewBox="0 0 4134 4134" version="1.1" xmlns="http://www.w3.org/2000/svg" xmlns:xlink="http://www.w3.org/1999/xlink" xml:space="preserve" xmlns:serif="http://www.serif.com/" style="fill-rule:evenodd;clip-rule:evenodd;stroke-linecap:round;stroke-linejoin:round;stroke-miterlimit:1.5;">
    <rect x="0" y="0" width="4133.858" height="4133.858" style="fill:none;stroke:black;stroke-opacity:0;stroke-width:27.3px;"/>
    <g transform="matrix(0.807564,0,0,0.807564,699.155449,690.676457)">
        <path d="M1018.914,2297.133C865.961,2711.38 1262.15,2480.315 1262.15,2480.315C2698.354,2556.512 2371.67,1097.106 2371.67,1097.106C2371.67,1097.106 2519.414,718.602 2134.371,925.883C2134.371,925.883 815.492,801.277 1018.914,2297.133Z" style="fill:rgb(9,9,9);"/>
    </g>
    <g transform="matrix(1.776908,0,0,2.070896,1159.260805,-13.756558)">
        <path d="M-260.929,1109.686L-395.982,1089.887L-395.982,917.909L-260.419,897.032C-251.766,851.135 -237.674,806.793 -218.729,764.509L-324.119,689.445L-223.903,540.508L-94.114,580.655C-60.313,545.209 -22.366,512.782 19.087,483.923L-28.536,373.483L145.042,287.494L233.869,377.763C283.22,361.686 334.956,349.779 388.49,342.543L411.564,226.662L611.996,226.662L636.327,342.98C689.818,350.405 741.496,362.497 790.776,378.752L878.259,288.324L1051.838,374.312L1005.048,485.677C1046.359,514.679 1084.15,547.239 1117.784,582.807L1246.497,541.945L1346.712,690.882L1241.509,767.099C1260.246,809.444 1274.123,853.835 1282.555,899.769L1417.609,919.568L1417.609,1091.546L1282.046,1112.423C1273.393,1158.32 1259.301,1202.662 1240.356,1244.946L1345.746,1320.01L1245.53,1468.947L1115.741,1428.8C1081.939,1464.246 1043.993,1496.673 1002.54,1525.532L1050.163,1635.972L876.584,1721.961L787.758,1631.692C738.407,1647.769 686.671,1659.676 633.137,1666.912L610.062,1782.793L409.631,1782.793L385.299,1666.475C331.809,1659.05 280.13,1646.958 230.851,1630.703L143.368,1721.131L-30.211,1635.143L16.579,1523.778C-24.732,1494.776 -62.524,1462.216 -96.157,1426.648L-224.87,1467.51L-325.086,1318.573L-219.882,1242.356C-238.619,1200.011 -252.496,1155.62 -260.929,1109.686ZM510.813,451.301C154.834,451.301 -134.177,699.283 -134.177,1004.727C-134.177,1310.172 154.834,1558.154 510.813,1558.154C866.793,1558.154 1155.803,1310.172 1155.803,1004.727C1155.803,699.283 866.793,451.301 510.813,451.301Z" style="fill:rgb(3,3,3);"/>
    </g>
</svg>
