<?xml version="1.0" encoding="UTF-8" standalone="no"?>
<!DOCTYPE svg PUBLIC "-//W3C//DTD SVG 1.1//EN" "http://www.w3.org/Graphics/SVG/1.1/DTD/svg11.dtd">
<svg width="100%" height="100%" viewBox="0 0 591 591" version="1.1" xmlns="http://www.w3.org/2000/svg" xmlns:xlink="http://www.w3.org/1999/xlink" xml:space="preserve" xmlns:serif="http://www.serif.com/" style="fill-rule:evenodd;clip-rule:evenodd;stroke-linecap:round;stroke-linejoin:round;stroke-miterlimit:1.5;">
    <g transform="matrix(3.925383,0,0,11.36599,-5919.597492,-9521.673935)">
        <rect x="1508.031" y="837.734" width="893.639" height="436.445" style="fill:rgb(27,51,78);"/>
    </g>
    <g transform="matrix(1,0,0,1,-1764.785669,-104.893759)">
        <path d="M2139.763,226.793L1926.763,227.428L1926.763,573.545L2193.36,573.545L2193.36,279.593L2139.763,226.793Z" style="fill:none;stroke:white;stroke-width:31.77px;"/>
        <g transform="matrix(0.928992,-0.536354,0.536354,0.928992,-154.976912,1193.169437)">
            <circle cx="2169.273" cy="457.861" r="43.727" style="fill:white;"/>
            <g transform="matrix(0.693189,0,0,1,665.333137,-0)">
                <path d="M2139.763,457.861L2199.72,457.861" style="fill:none;stroke:rgb(27,51,78);stroke-width:17.87px;"/>
            </g>
        </g>
        <g transform="matrix(-0,1.546802,1.546802,0,1789.509141,-3113.10002)">
            <path d="M2193.36,226.437L2193.36,261.087L2159.516,227.244L2193.36,226.437Z" style="fill:none;stroke:white;stroke-width:20.54px;"/>
        </g>
        <g transform="matrix(1.140627,0.340809,-0.340809,1.140627,-157.076157,-786.552917)">
            <path d="M1996.727,382.69C1996.727,365.213 2010.916,351.023 2028.394,351.023C2045.872,351.023 2060.061,365.213 2060.061,382.69L2060.061,445.577C2060.061,463.055 2045.872,477.245 2028.394,477.245C2010.916,477.245 1996.727,463.055 1996.727,445.577L1996.727,382.69Z" style="fill:white;"/>
            <g transform="matrix(0.635605,-0,0,1,738.484284,0)">
                <path d="M2009.985,414.134L2048.684,414.134" style="fill:none;stroke:rgb(27,51,78);stroke-width:16.54px;"/>
            </g>
        </g>
    </g>
</svg>
