<?xml version="1.0" encoding="UTF-8" standalone="no"?>
<!DOCTYPE svg PUBLIC "-//W3C//DTD SVG 1.1//EN" "http://www.w3.org/Graphics/SVG/1.1/DTD/svg11.dtd">
<svg width="100%" height="100%" viewBox="0 0 591 591" version="1.1" xmlns="http://www.w3.org/2000/svg" xmlns:xlink="http://www.w3.org/1999/xlink" xml:space="preserve" xmlns:serif="http://www.serif.com/" style="fill-rule:evenodd;clip-rule:evenodd;stroke-linecap:round;stroke-linejoin:round;stroke-miterlimit:1.5;">
    <g transform="matrix(3.925383,0,0,11.36599,-5919.597492,-9521.673935)">
        <rect x="1508.031" y="837.734" width="893.639" height="436.445" style="fill:rgb(27,51,78);"/>
    </g>
    <g transform="matrix(1,0,0,1,-1113.147917,-104.893759)">
        <g transform="matrix(1,0,0,1,-153.299325,0)">
            <g transform="matrix(1,0,0,0.886165,0,65.289763)">
                <rect x="1369.509" y="226.793" width="384.428" height="346.752" style="fill:none;stroke:white;stroke-width:33.62px;"/>
            </g>
            <g transform="matrix(1,0,0,0.886165,0,117.573476)">
                <rect x="1369.509" y="167.793" width="384.428" height="82.539" style="fill:white;"/>
            </g>
            <g transform="matrix(0.318702,0,0,0.52014,963.066909,159.954949)">
                <path d="M1543.239,260.366L1543.239,128.501L1580.206,128.501L1580.206,260.366L1543.239,260.366ZM1860.281,260.366L1860.281,128.501L1897.248,128.501L1897.248,260.366L1860.281,260.366ZM2177.86,260.366L2177.86,128.501L2212.9,128.501L2212.9,260.366L2177.86,260.366Z" style="fill:none;stroke:white;stroke-width:73.65px;"/>
            </g>
            <g transform="matrix(1,0,0,1,153.299325,0)">
                <rect x="1301.601" y="251.673" width="11.781" height="43.709" style="fill:none;stroke:rgb(27,51,78);stroke-width:31.67px;stroke-linecap:butt;stroke-miterlimit:1.4;"/>
            </g>
            <g transform="matrix(1,0,0,1,254.348168,-0.614283)">
                <rect x="1301.601" y="251.673" width="11.781" height="43.709" style="fill:none;stroke:rgb(27,51,78);stroke-width:31.67px;stroke-linecap:butt;stroke-miterlimit:1.4;"/>
            </g>
            <g transform="matrix(1,0,0,1,355.089876,-1.842836)">
                <rect x="1301.601" y="251.673" width="11.781" height="43.709" style="fill:none;stroke:rgb(27,51,78);stroke-width:31.67px;stroke-linecap:butt;stroke-miterlimit:1.4;"/>
            </g>
            <g transform="matrix(0.731913,0,0,1.066601,515.883674,3.745581)">
                <path d="M1600.978,351.023C1604.348,351.023 1607.081,352.898 1607.081,355.211C1607.081,361.826 1607.081,374.619 1607.081,381.234C1607.081,383.548 1604.348,385.423 1600.978,385.423C1584.455,385.423 1538.99,385.423 1522.468,385.423C1519.097,385.423 1516.365,383.548 1516.365,381.234C1516.365,374.619 1516.365,361.826 1516.365,355.211C1516.365,352.898 1519.097,351.023 1522.468,351.023C1538.99,351.023 1584.455,351.023 1600.978,351.023Z" style="fill:white;"/>
            </g>
            <g transform="matrix(0.731913,0,0,1.066601,417.984806,3.361581)">
                <path d="M1600.978,351.023C1604.348,351.023 1607.081,352.898 1607.081,355.211C1607.081,361.826 1607.081,374.619 1607.081,381.234C1607.081,383.548 1604.348,385.423 1600.978,385.423C1584.455,385.423 1538.99,385.423 1522.468,385.423C1519.097,385.423 1516.365,383.548 1516.365,381.234C1516.365,374.619 1516.365,361.826 1516.365,355.211C1516.365,352.898 1519.097,351.023 1522.468,351.023C1538.99,351.023 1584.455,351.023 1600.978,351.023Z" style="fill:white;"/>
            </g>
            <g transform="matrix(0.728853,0,0,1.062141,325.842556,4.82961)">
                <path d="M1600.952,351.023C1604.337,351.023 1607.081,352.906 1607.081,355.229C1607.081,361.843 1607.081,374.603 1607.081,381.217C1607.081,383.54 1604.337,385.423 1600.952,385.423C1584.417,385.423 1539.029,385.423 1522.494,385.423C1519.109,385.423 1516.365,383.54 1516.365,381.217C1516.365,374.603 1516.365,361.843 1516.365,355.229C1516.365,352.906 1519.109,351.023 1522.494,351.023C1539.029,351.023 1584.417,351.023 1600.952,351.023Z" style="fill:white;"/>
            </g>
            <g transform="matrix(0.731913,0,0,1.066601,515.883674,63.248282)">
                <path d="M1600.978,351.023C1604.348,351.023 1607.081,352.898 1607.081,355.211C1607.081,361.826 1607.081,374.619 1607.081,381.234C1607.081,383.548 1604.348,385.423 1600.978,385.423C1584.455,385.423 1538.99,385.423 1522.468,385.423C1519.097,385.423 1516.365,383.548 1516.365,381.234C1516.365,374.619 1516.365,361.826 1516.365,355.211C1516.365,352.898 1519.097,351.023 1522.468,351.023C1538.99,351.023 1584.455,351.023 1600.978,351.023Z" style="fill:white;"/>
            </g>
            <g transform="matrix(0.731913,0,0,1.066601,417.984806,62.864282)">
                <path d="M1600.978,351.023C1604.348,351.023 1607.081,352.898 1607.081,355.211C1607.081,361.826 1607.081,374.619 1607.081,381.234C1607.081,383.548 1604.348,385.423 1600.978,385.423C1584.455,385.423 1538.99,385.423 1522.468,385.423C1519.097,385.423 1516.365,383.548 1516.365,381.234C1516.365,374.619 1516.365,361.826 1516.365,355.211C1516.365,352.898 1519.097,351.023 1522.468,351.023C1538.99,351.023 1584.455,351.023 1600.978,351.023Z" style="fill:white;"/>
            </g>
            <g transform="matrix(0.728853,0,0,1.062141,325.842556,64.332311)">
                <path d="M1600.952,351.023C1604.337,351.023 1607.081,352.906 1607.081,355.229C1607.081,361.843 1607.081,374.603 1607.081,381.217C1607.081,383.54 1604.337,385.423 1600.952,385.423C1584.417,385.423 1539.029,385.423 1522.494,385.423C1519.109,385.423 1516.365,383.54 1516.365,381.217C1516.365,374.603 1516.365,361.843 1516.365,355.229C1516.365,352.906 1519.109,351.023 1522.494,351.023C1539.029,351.023 1584.417,351.023 1600.952,351.023Z" style="fill:white;"/>
            </g>
            <g transform="matrix(0.736717,0,0,1.073601,508.599228,120.808416)">
                <path d="M1601.017,351.023C1602.626,351.023 1604.168,351.461 1605.305,352.242C1606.442,353.022 1607.081,354.08 1607.081,355.184C1607.081,361.8 1607.081,374.646 1607.081,381.262C1607.081,382.365 1606.442,383.424 1605.305,384.204C1604.168,384.984 1602.626,385.423 1601.017,385.423C1584.515,385.423 1538.931,385.423 1522.428,385.423C1520.82,385.423 1519.278,384.984 1518.141,384.204C1517.004,383.424 1516.365,382.365 1516.365,381.262C1516.365,374.646 1516.365,361.8 1516.365,355.184C1516.365,354.08 1517.004,353.022 1518.141,352.242C1519.278,351.461 1520.82,351.023 1522.428,351.023C1538.931,351.023 1584.515,351.023 1601.017,351.023Z" style="fill:white;"/>
            </g>
            <g transform="matrix(0.736717,0,0,1.073601,410.70036,120.424416)">
                <path d="M1601.017,351.023C1602.626,351.023 1604.168,351.461 1605.305,352.242C1606.442,353.022 1607.081,354.08 1607.081,355.184C1607.081,361.8 1607.081,374.646 1607.081,381.262C1607.081,382.365 1606.442,383.424 1605.305,384.204C1604.168,384.984 1602.626,385.423 1601.017,385.423C1584.515,385.423 1538.931,385.423 1522.428,385.423C1520.82,385.423 1519.278,384.984 1518.141,384.204C1517.004,383.424 1516.365,382.365 1516.365,381.262C1516.365,374.646 1516.365,361.8 1516.365,355.184C1516.365,354.08 1517.004,353.022 1518.141,352.242C1519.278,351.461 1520.82,351.023 1522.428,351.023C1538.931,351.023 1584.515,351.023 1601.017,351.023Z" style="fill:white;"/>
            </g>
            <g transform="matrix(0.724049,0,0,1.05514,333.562792,127.288821)">
                <path d="M1600.911,351.023C1602.548,351.023 1604.117,351.469 1605.274,352.263C1606.431,353.057 1607.081,354.134 1607.081,355.257C1607.081,361.87 1607.081,374.576 1607.081,381.189C1607.081,382.312 1606.431,383.389 1605.274,384.183C1604.117,384.977 1602.548,385.423 1600.911,385.423C1584.356,385.423 1539.09,385.423 1522.534,385.423C1520.898,385.423 1519.329,384.977 1518.172,384.183C1517.015,383.389 1516.365,382.312 1516.365,381.189C1516.365,374.576 1516.365,361.87 1516.365,355.257C1516.365,354.134 1517.015,353.057 1518.172,352.263C1519.329,351.469 1520.898,351.023 1522.534,351.023C1539.09,351.023 1584.356,351.023 1600.911,351.023Z" style="fill:white;"/>
            </g>
        </g>
        <path d="M1285.522,249.83L1328.829,249.83L1328.829,233.552L1285.829,232.938L1285.522,249.83Z" style="fill:white;"/>
        <g transform="matrix(1,0,0,1,101.355976,0.614276)">
            <path d="M1285.522,249.83L1328.829,249.83L1328.829,233.552L1285.829,232.938L1285.522,249.83Z" style="fill:white;"/>
        </g>
        <g transform="matrix(1,0,0,1,202.106782,0)">
            <path d="M1285.522,249.83L1328.829,249.83L1328.829,233.552L1285.829,232.938L1285.522,249.83Z" style="fill:white;"/>
        </g>
    </g>
</svg>
