<?xml version="1.0" encoding="UTF-8" standalone="no"?>
<!DOCTYPE svg PUBLIC "-//W3C//DTD SVG 1.1//EN" "http://www.w3.org/Graphics/SVG/1.1/DTD/svg11.dtd">
<svg width="100%" height="100%" viewBox="0 0 591 591" version="1.1" xmlns="http://www.w3.org/2000/svg" xmlns:xlink="http://www.w3.org/1999/xlink" xml:space="preserve" xmlns:serif="http://www.serif.com/" style="fill-rule:evenodd;clip-rule:evenodd;stroke-linecap:square;stroke-miterlimit:50;">
    <g transform="matrix(-0.396057,-0,0,-0.368701,537.61478,469.687004)">
        <path d="M340.754,481.311C343.92,481.355 346.466,484.125 346.466,487.527C346.466,488.809 346.466,490.162 346.466,491.447C346.466,493.096 345.856,494.677 344.771,495.842C343.686,497.008 342.214,497.663 340.679,497.663C322.745,497.663 268.226,497.663 250.292,497.663C248.758,497.663 247.286,497.008 246.201,495.842C245.115,494.677 244.506,493.096 244.506,491.447C244.506,442.723 244.506,122.742 244.506,74.018C244.506,72.369 245.115,70.788 246.201,69.622C247.286,68.456 248.758,67.802 250.292,67.802C268.226,67.802 322.745,67.802 340.679,67.802C343.875,67.802 346.466,70.585 346.466,74.018C346.466,75.703 346.466,77.528 346.466,79.214C346.466,82.647 343.875,85.43 340.679,85.43C323.342,85.43 271.955,85.43 254.618,85.43C251.422,85.43 248.832,88.213 248.832,91.646C248.832,107.732 248.832,150.591 248.832,166.678C248.832,168.326 249.441,169.907 250.526,171.073C251.612,172.239 253.084,172.894 254.618,172.894C266.384,172.894 292.978,172.894 304.744,172.894C306.279,172.894 307.751,173.549 308.836,174.714C309.921,175.88 310.531,177.461 310.531,179.11C310.531,179.709 310.531,180.317 310.531,180.916C310.531,184.349 307.94,187.132 304.744,187.132C296.402,187.132 264.06,187.132 254.57,187.132C251.393,187.132 248.81,189.884 248.783,193.296C248.659,209.221 248.328,251.61 248.203,267.65C248.19,269.307 248.793,270.902 249.88,272.079C250.967,273.256 252.446,273.918 253.989,273.918C265.78,273.918 292.316,273.918 304.066,273.918C305.601,273.918 307.073,274.573 308.158,275.739C309.243,276.904 309.853,278.486 309.853,280.134C309.853,281.175 309.853,282.255 309.853,283.296C309.853,286.729 307.262,289.512 304.066,289.512C292.419,289.512 266.266,289.512 254.618,289.512C251.422,289.512 248.832,292.296 248.832,295.729C248.832,311.815 248.832,354.674 248.832,370.76C248.832,374.193 251.422,376.976 254.618,376.976C266.312,376.976 292.637,376.976 304.332,376.976C307.527,376.976 310.118,379.759 310.118,383.192C310.118,384.233 310.118,385.314 310.118,386.355C310.118,389.788 307.527,392.571 304.332,392.571C292.637,392.571 266.312,392.571 254.618,392.571C251.422,392.571 248.832,395.354 248.832,398.787C248.832,414.9 248.832,457.875 248.832,473.899C248.832,477.3 251.377,480.07 254.543,480.114C271.832,480.354 323.466,481.071 340.754,481.311Z" style="fill:rgb(5,62,112);stroke:rgb(5,62,112);stroke-width:10.74px;"/>
    </g>
    <g transform="matrix(0.518999,-0.048752,0.055163,0.587248,186.983593,12.827634)">
        <path d="M46.195,489.86C67.039,491.59 143.423,430.029 154.332,420.439C154.989,419.846 155.903,419.533 156.841,419.58C157.778,419.627 158.647,420.03 159.223,420.685L159.226,420.686C181.705,401.305 293.475,314.749 289.629,204.385C286.922,126.721 194.292,117.999 177.173,117.743C176.91,117.739 176.999,118.68 176.999,118.68C174.686,124.046 169.348,127.806 163.138,127.806L163.063,127.806L148.052,127.806L147.977,127.806C139.651,127.806 132.891,121.046 132.891,112.72C132.891,104.394 139.651,97.634 147.977,97.634L148.052,97.634L163.063,97.634L163.138,97.634C169.432,97.634 174.831,101.497 177.091,106.979L177.096,106.439C177.096,106.439 293.025,108.91 304.571,199.425C318.458,308.286 189.758,413.64 169.244,429.808L169.648,430.19C170.858,431.334 170.879,433.104 169.697,434.27C129.892,473.003 52.727,521.245 42.9,520.429C33.073,519.613 -32.577,459.515 -63.524,414.908C-64.44,413.569 -64.046,411.832 -62.616,410.908L-62.138,410.599C-78.887,391.338 -183.136,266.645 -146.553,161.974C-116.136,74.942 -1.714,91.595 -1.714,91.595L-1.824,92.126C1.552,87.112 7.671,84.205 13.855,85.241L13.929,85.253L28.677,87.724L28.751,87.736C36.931,89.107 42.148,96.861 40.394,105.041C38.639,113.222 30.574,118.75 22.393,117.38L22.319,117.368L7.571,114.897L7.497,114.885C1.396,113.863 -3.057,109.29 -4.198,103.637C-4.198,103.637 -3.912,102.728 -4.171,102.688C-21.045,100.122 -113.893,93.446 -132.917,169.307C-159.952,277.106 -68.376,380.544 -50.373,403.285L-50.37,403.285C-49.666,402.737 -48.728,402.484 -47.797,402.591C-46.866,402.699 -46.034,403.157 -45.513,403.848C-36.816,415.066 25.352,488.129 46.195,489.86Z" style="fill:rgb(5,62,112);stroke:rgb(5,62,112);stroke-width:7.49px;stroke-linecap:round;stroke-linejoin:round;stroke-miterlimit:1.5;"/>
    </g>
    <g transform="matrix(1.061195,0,0,1.061195,21.762751,-72.127397)">
        <path d="M208.087,465.234L199.079,465.234L199.079,360.142L208.087,360.142L208.087,465.234ZM392.11,465.234L391.059,313.26C377.402,310.957 366.985,299.063 366.985,284.755C366.985,268.801 379.938,255.848 395.892,255.848C411.847,255.848 424.8,268.801 424.8,284.755C424.8,299.146 414.261,311.096 400.487,313.299L400.047,465.387L392.11,465.234ZM395.892,267.498C386.368,267.498 378.636,275.231 378.636,284.755C378.636,294.279 386.368,302.012 395.892,302.012C405.417,302.012 413.149,294.279 413.149,284.755C413.149,275.231 405.417,267.498 395.892,267.498ZM400.047,465.387C400.047,520.846 355.022,565.871 299.563,565.871C244.105,565.871 199.079,520.692 199.079,465.234L208.087,465.234C208.087,515.934 249.463,557.25 300.164,557.25C350.864,557.25 392.11,515.934 392.11,465.234L400.047,465.387Z" style="fill:rgb(5,62,112);stroke:rgb(5,62,112);stroke-width:3.93px;stroke-linecap:round;stroke-linejoin:round;stroke-miterlimit:1.5;"/>
    </g>
</svg>
